<svg width="2000" height="1748" viewBox="0 0 2000 1748" fill="none" xmlns="http://www.w3.org/2000/svg">
<path d="M1141.8 717.158C1138.8 718.516 1135.53 720.094 1132.13 721.855C1489.08 786.395 1597.78 1191.29 1431.21 1441.34C1532.07 1363.74 1659.5 1286.68 1722.42 1126.34C1764.17 988.235 1561.9 527.17 1141.8 717.158Z" fill="#1F8BA5"/>
<path d="M1722.32 1126.67C1764.53 988.786 1562.09 527.17 1141.77 717.232C1071.07 749.08 878.556 905.092 734.71 713.122C618.131 557.734 704.475 380.514 835.017 308.305C984.983 225.383 1374.78 159.998 1610.28 474.004C1743.24 651.261 1805.95 913.311 1722.32 1126.67Z" fill="#15ACCD"/>
<path d="M858.212 1029.84C861.218 1028.49 864.479 1026.87 867.888 1025.11C510.931 960.569 402.231 555.752 568.799 305.626C467.942 383.412 340.515 460.171 277.59 620.623C235.847 758.84 438.074 1220.02 858.212 1029.84Z" fill="#1A536B"/>
<path d="M277.701 620.368C235.665 758.328 437.855 1220.02 858.251 1029.84C928.946 997.996 1121.42 842.168 1265.31 1033.99C1381.85 1189.34 1295.5 1366.56 1165 1438.77C1015.03 1521.69 625.239 1587.08 389.736 1273.11C256.775 1095.89 194.033 833.765 277.701 620.368Z" fill="#16698C"/>
</svg>
